<svg version="1.1" id="Layer_1" xmlns="http://www.w3.org/2000/svg" xmlns:xlink="http://www.w3.org/1999/xlink" x="0px" y="0px"
	 viewBox="0 0 439.5 99.8" enable-background="new 0 0 439.5 99.8" xml:space="preserve">
<g>
	<path d="M51.6,24c-0.5,0.6-1.1,1-1.7,1.4l-1,0.6l0.8,0.9c0.6,0.7,1.4,1.4,2.1,1.8l1-1.7c-0.3-0.2-0.6-0.4-0.9-0.6
		c0.4-0.3,0.8-0.6,1.1-1L51.6,24z"/>
	<path d="M19.9,15.2l-1.8-0.9c-0.8,1.6-1.4,3.2-1.8,5l2,0.4C18.6,18.1,19.2,16.6,19.9,15.2z"/>
	<path d="M31.3,46.5L29.9,45c-0.7-0.7-1.4-1.5-2-2.2l-1.5,1.4c0.7,0.7,1.4,1.5,2,2.2l1.4,1.5L31.3,46.5z"/>
	<path d="M31.2,5l-0.8-1.8c-1.6,0.7-3.1,1.6-4.5,2.6l1.1,1.6C28.2,6.5,29.7,5.7,31.2,5z"/>
	<path d="M24.7,9.2l-1.3-1.5c-1.3,1.2-2.5,2.5-3.5,3.9l1.6,1.2C22.3,11.5,23.4,10.3,24.7,9.2z"/>
	<path d="M18.2,27.2c-0.2-1.2-0.4-2.4-0.4-3.6c0-0.4,0-0.7,0-1.1l-2-0.1c0,0.4,0,0.8,0,1.2c0,1.3,0.1,2.7,0.4,4L18.2,27.2z"/>
	<path d="M30.4,89.5l-0.3-2c-1.6,0.2-3.2,0.2-4.7-0.1l-0.4,2c1,0.2,2,0.3,3.1,0.3C28.9,89.6,29.7,89.6,30.4,89.5z"/>
	<path d="M36.9,84.6c-1.2,1-2.5,1.8-4,2.3l0.7,1.9c1.7-0.6,3.3-1.5,4.7-2.7L36.9,84.6z"/>
	<path d="M25.5,66.2l-0.5-1.9c-1.8,0.5-3.5,1.3-4.9,2.2l1.1,1.6C22.4,67.3,23.8,66.7,25.5,66.2z"/>
	<path d="M22,88.3l0.9-1.8c-1.4-0.7-2.6-1.6-3.5-2.8l-1.6,1.2C18.9,86.4,20.3,87.5,22,88.3z"/>
	<path d="M19.2,70l-1.5-1.3c-1.2,1.4-2,3.1-2.4,4.9l2,0.4C17.5,72.5,18.2,71.1,19.2,70z"/>
	<path d="M17,76.8l-2,0.1c0,1.9,0.4,3.6,1.1,5.3l1.8-0.8C17.4,79.9,17,78.4,17,76.8z"/>
	<path d="M43.6,67.5c-0.3-1.7-0.7-3.4-1.3-5l-1.9,0.7c0.6,1.5,1,3.1,1.2,4.7L43.6,67.5z"/>
	<path d="M59.7,27.3c-1.1,0.4-2.2,0.7-3.4,0.7c-0.3,0-0.7,0-1-0.1l-0.2,2c0.4,0,0.8,0.1,1.2,0.1c1.5,0,2.9-0.3,4.2-0.8L59.7,27.3z"
		/>
	<path d="M54.6,0.8C53,0.4,51.3,0.1,49.5,0l-0.2,2c1.7,0.1,3.3,0.4,4.8,0.8L54.6,0.8z"/>
	<path d="M46.2,2.2h0.2l0-2h-0.2c-1.7,0-3.3,0-5,0.2l0.2,1.9C43,2.1,44.6,2.2,46.2,2.2z"/>
	<path d="M62.3,4.3c-1.3-1-2.9-1.9-4.7-2.6l-0.7,1.9c1.6,0.6,3,1.4,4.1,2.3L62.3,4.3z"/>
	<path d="M25.8,40.6c-1.2-1.4-2.2-2.7-3.1-3.9l-1.6,1.2c0.9,1.2,1.9,2.5,3.2,4L25.8,40.6z"/>
	<path d="M67,11.4c-0.5-1.8-1.3-3.4-2.4-4.8L63,7.8c0.9,1.2,1.6,2.6,2.1,4.1L67,11.4z"/>
	<path d="M41,59.6c-0.7-1.5-1.6-2.9-2.6-4.5l-1.7,1.1c1,1.4,1.8,2.8,2.5,4.2L41,59.6z"/>
	<path d="M19,30l-1.9,0.7c0.6,1.6,1.3,3.1,2.3,4.7l1.7-1C20.2,32.8,19.5,31.4,19,30z"/>
	<path d="M36.6,52.7c-0.9-1.2-2-2.5-3.3-3.9l-1.5,1.3c1.2,1.4,2.3,2.6,3.2,3.8L36.6,52.7z"/>
	<path d="M38.6,2.6l-0.4-2c-1.7,0.3-3.4,0.8-5,1.4l0.7,1.9C35.4,3.4,37,2.9,38.6,2.6z"/>
	<path d="M43.6,75.9c0.2-1.3,0.3-2.7,0.3-4.1c0-0.4,0-0.7,0-1.1l-2,0.1c0,0.3,0,0.7,0,1c0,1.3-0.1,2.6-0.3,3.8L43.6,75.9z"/>
	<path d="M40.9,78.3c-0.5,1.6-1.2,3-2.1,4.2l1.6,1.2c1-1.4,1.8-3,2.4-4.8L40.9,78.3z"/>
	<path d="M65.6,14.7c0,0.5,0.1,0.9,0.1,1.4c0,1.1-0.1,2.3-0.3,3.3l2,0.4c0.2-1.2,0.3-2.4,0.3-3.7c0-0.5,0-1.1-0.1-1.6L65.6,14.7z"/>
	<path d="M61.9,25.8l1.3,1.5c1.3-1.2,2.4-2.7,3.1-4.5l-1.8-0.8C63.9,23.6,63,24.9,61.9,25.8z"/>
	<path d="M31.3,61.7l-1.9,0.7c0.1,0.4,0.2,0.7,0.3,1.1c-0.5,0-1,0-1.5,0.1l0.2,1.9c0.8-0.1,1.6-0.3,2.4-0.3h1.1l-0.1-0.9
		C31.8,63.3,31.6,62.5,31.3,61.7z"/>
	<path d="M41.6,30.9l-1.5,1.4c1,1.1,2.1,2.2,3.6,3.5l1.3-1.5C43.6,33,42.5,31.9,41.6,30.9z"/>
	<path d="M55,46.5l1.5-1.3c-1-1.2-2.1-2.4-3.4-3.6L51.7,43C53,44.2,54,45.4,55,46.5z"/>
	<path d="M63.8,59.5c-0.4-1.7-0.9-3.3-1.5-4.8l-1.9,0.7c0.6,1.5,1,3,1.4,4.5L63.8,59.5z"/>
	<path d="M8.1,61.7l-1.4-1.5c-1.3,1.2-2.4,2.5-3.3,4l1.7,1.1C6,64,7,62.8,8.1,61.7z"/>
	<path d="M2,76.9c0-0.6,0-1.3,0.1-1.9l-2-0.1c0,0.7-0.1,1.4-0.1,2C0,78,0.1,79,0.2,80l2-0.2C2.1,78.9,2,77.9,2,76.9z"/>
	<path d="M56.8,48.8c1,1.3,1.8,2.7,2.5,4l1.8-0.9c-0.8-1.5-1.7-2.9-2.7-4.3L56.8,48.8z"/>
	<path d="M3.8,67.8L2,67c-0.7,1.5-1.2,3.2-1.5,4.9l2,0.4C2.7,70.7,3.2,69.2,3.8,67.8z"/>
	<path d="M39.8,28.7c-1-1.3-1.8-2.6-2.4-4l-1.8,0.8c0.7,1.5,1.5,2.9,2.6,4.4L39.8,28.7z"/>
	<path d="M38.5,11L37,9.6c-1.2,1.3-2,2.9-2.5,4.7l1.9,0.5C36.9,13.3,37.5,12,38.5,11z"/>
	<path d="M44.8,8l-0.2-2c-1.9,0.2-3.6,0.8-5,1.6l1,1.7C41.7,8.6,43.2,8.1,44.8,8z"/>
	<path d="M17.1,57.3c0.8-0.1,1.7-0.2,2.5-0.2c0.7,0,1.4,0,2.1,0.1l0.3-2c-0.8-0.1-1.6-0.2-2.3-0.2c-0.9,0-1.9,0.1-2.9,0.2L17.1,57.3
		z"/>
	<path d="M52.8,7.2c-1.4-0.8-3.1-1.3-5.1-1.4l-0.1,2C49.3,8,50.7,8.3,51.8,9L52.8,7.2z"/>
	<path d="M55.1,14.7l2-0.1c-0.1-2-0.7-3.7-1.7-5.1l-1.6,1.2C54.5,11.7,55,13.1,55.1,14.7z"/>
	<path d="M29.6,58.8c-1.1-1.3-2.7-2.2-4.5-2.9l-0.6,1.9c1.6,0.5,2.8,1.3,3.7,2.3L29.6,58.8z"/>
	<path d="M34,18.4c0,1.4,0.2,2.9,0.5,4.2l1.9-0.5c-0.3-1.2-0.4-2.5-0.4-3.7c0-0.3,0-0.6,0-0.8l-2-0.1C34,17.8,34,18.1,34,18.4z"/>
	<path d="M56.9,17.7l-2-0.3c-0.3,1.5-0.8,3-1.5,4.3l1.7,1C56,21.1,56.6,19.4,56.9,17.7z"/>
	<path d="M41.3,95.8l0.6,1.9c1.6-0.5,3.2-1.1,4.7-1.8L45.7,94C44.3,94.7,42.8,95.3,41.3,95.8z"/>
	<path d="M33.8,97.4l0.3,2c1.7-0.2,3.3-0.5,4.9-0.9l-0.5-1.9C37,96.9,35.4,97.2,33.8,97.4z"/>
	<path d="M61.7,75.1l1.9,0.5c0.4-1.6,0.7-3.3,0.8-5l-2-0.2C62.3,72,62.1,73.6,61.7,75.1z"/>
	<path d="M62.4,62.7c0.2,1.4,0.3,2.8,0.3,4.3l0,0.5l2,0l0-0.5c0-1.6-0.1-3.1-0.3-4.5L62.4,62.7z"/>
	<path d="M48.3,92.7l1,1.7c1.5-0.9,2.9-1.8,4.2-2.9L52.2,90C51,91,49.7,91.9,48.3,92.7z"/>
	<path d="M50.9,39.5c-1-0.9-2-1.8-3-2.6l-0.7-0.6l-1.3,1.5l0.7,0.6c1,0.9,2,1.7,2.9,2.6L50.9,39.5z"/>
	<path d="M54.3,88.1l1.4,1.4c1.2-1.2,2.3-2.5,3.3-3.9l-1.6-1.2C56.5,85.8,55.5,87,54.3,88.1z"/>
	<path d="M26.1,97.8l-0.1,2c0.6,0,1.3,0,1.9,0c1,0,2.1,0,3.1-0.1l-0.1-2C29.3,97.8,27.7,97.8,26.1,97.8z"/>
	<path d="M13.8,56.1c-1.6,0.5-3.2,1.3-4.6,2.3l1.1,1.7c1.3-0.9,2.7-1.5,4.2-2L13.8,56.1z"/>
	<path d="M10.5,95.8c1.4,0.8,3,1.5,4.7,2.1l0.6-1.9c-1.5-0.5-3-1.2-4.3-1.9L10.5,95.8z"/>
	<path d="M2.6,82.5L0.7,83c0.4,1.7,1,3.3,1.8,4.8l1.8-0.9C3.6,85.6,3,84.1,2.6,82.5z"/>
	<path d="M5.8,89.2l-1.6,1.2c1,1.3,2.3,2.6,3.7,3.6l1.2-1.6C7.9,91.5,6.7,90.4,5.8,89.2z"/>
	<path d="M18,98.7c1.6,0.4,3.3,0.7,5,0.8l0.2-2c-1.6-0.2-3.2-0.4-4.7-0.8L18,98.7z"/>
	<path d="M58.9,82.1l1.7,1c0.8-1.5,1.5-3,2.1-4.6l-1.9-0.7C60.3,79.3,59.7,80.7,58.9,82.1z"/>
	<path d="M123.8,83.3l-1.6,1.3c1.2,1.4,2.8,2.3,5,2.7l0.3-2C125.8,84.9,124.6,84.3,123.8,83.3z"/>
	<path d="M122.6,80.9c-0.4-1.3-0.6-2.8-0.6-4.8l-2,0c0,2.1,0.2,3.9,0.7,5.3L122.6,80.9z"/>
	<path d="M135.7,86.8l-0.4-2c-1.5,0.3-3.2,0.5-4.9,0.5l0,2C132.3,87.3,134.1,87.1,135.7,86.8z"/>
	<path d="M120.3,69.6l-0.1,0.9c-0.1,0.8-0.1,1.7-0.2,2.5l2,0.1c0-0.5,0.1-1.1,0.1-1.6c0.6,0,1.1-0.1,1.7-0.2l-0.3-2
		c-0.8,0.1-1.6,0.2-2.4,0.2L120.3,69.6z"/>
	<path d="M104.3,66.6l-2-0.4c-0.3,1.7-0.6,3.4-0.8,5l2,0.2C103.7,69.8,104,68.2,104.3,66.6z"/>
	<path d="M109.1,51.6l-1.8-0.9c-0.7,1.5-1.4,3.1-2,4.7l1.9,0.7C107.8,54.6,108.4,53.1,109.1,51.6z"/>
	<path d="M145.5,56.3l1.7,1.1c1-1.5,1.8-3,2.5-4.6l-1.8-0.8C147.2,53.6,146.4,55,145.5,56.3z"/>
	<path d="M106.2,58.9l-1.9-0.6c-0.5,1.6-1,3.2-1.4,4.9l1.9,0.5C105.3,62.1,105.7,60.5,106.2,58.9z"/>
	<path d="M147.9,33.9c-1.3-1.1-2.8-2-4.7-2.6l-0.6,1.9c1.6,0.5,2.9,1.2,4,2.1L147.9,33.9z"/>
	<path d="M151.4,41.7c-0.2-2-0.7-3.7-1.5-5.2l-1.8,1c0.7,1.2,1.1,2.7,1.2,4.4L151.4,41.7z"/>
	<rect x="89.8" y="59.3" transform="matrix(-0.9777 -0.21 0.21 -0.9777 166.6311 141.2049)" width="2" height="5"/>
	<path d="M151.5,44.8l-2-0.1c-0.1,1.6-0.3,3.2-0.7,4.7l1.9,0.5C151.1,48.3,151.4,46.6,151.5,44.8z"/>
	<rect x="91.5" y="51.4" transform="matrix(0.9777 0.21 -0.21 0.9777 13.39 -18.2199)" width="2" height="5"/>
	<path d="M101.3,74.3c0,0.9-0.1,1.7-0.1,2.4c0,0.1,0,0.3,0,0.4c-0.3,0.5-0.5,0.9-0.8,1.4l1.7,1.1c0.4-0.6,0.7-1.2,1.1-1.8l0.1-0.2
		l0-0.3c0-0.1,0-0.2,0-0.3c0-0.1,0-0.2,0-0.3c0-0.7,0-1.5,0.1-2.3L101.3,74.3z"/>
	<rect x="88.1" y="67.1" transform="matrix(0.9777 0.21 -0.21 0.9777 16.5968 -17.1665)" width="2" height="5"/>
	<path d="M88.7,76.3l0.2-1.1l-2-0.4l-0.2,1.1c-0.4,1.7-0.5,2.8-0.5,4l2,0C88.2,78.8,88.4,77.8,88.7,76.3z"/>
	<path d="M136.5,32.5C136.5,32.5,136.5,32.5,136.5,32.5c1.2,0,2.3,0.1,3.3,0.2l0.3-2c-1.1-0.1-2.3-0.2-3.5-0.2c0,0,0,0,0,0
		c-0.5,0-1.1,0-1.6,0l0.1,2C135.5,32.5,136,32.5,136.5,32.5z"/>
	<path d="M113.4,41.3l1.5,1.3c1.1-1.3,2.2-2.4,3.4-3.4l-1.3-1.5C115.8,38.8,114.6,40,113.4,41.3z"/>
	<rect x="91.7" y="45.1" transform="matrix(0.21 -0.9777 0.9777 0.21 29.2967 128.5122)" width="5" height="2"/>
	<path d="M124.8,35l-0.8-1.8c-1.5,0.7-3,1.6-4.5,2.6l1.2,1.6C121.9,36.5,123.3,35.7,124.8,35z"/>
	<path d="M111.5,43.8c-1,1.3-1.9,2.8-2.8,4.3l1.7,1c0.8-1.5,1.7-2.8,2.6-4.1L111.5,43.8z"/>
	<path d="M138,63.8c-1.3,0.9-2.7,1.7-4.2,2.4l0.9,1.8c1.6-0.8,3-1.6,4.4-2.6L138,63.8z"/>
	<path d="M132.1,32.8l-0.3-2c-1.7,0.3-3.4,0.7-5,1.2l0.6,1.9C128.9,33.4,130.5,33,132.1,32.8z"/>
	<path d="M126.9,70.7c1.7-0.4,3.3-0.9,4.9-1.5l-0.7-1.9c-1.5,0.6-3.1,1-4.6,1.4L126.9,70.7z"/>
	<path d="M92.3,83.6c-2.5,0-3.2-0.7-3.6-1.3l-1.7,1c1.2,2,3.6,2.3,5.3,2.3L92.3,83.6z"/>
	<path d="M98.6,80.6c-1.2,1.2-2.4,2-3.8,2.5l0.7,1.9c1.6-0.6,3.1-1.6,4.5-3L98.6,80.6z"/>
	<path d="M141.6,63.6c1.3-1.1,2.6-2.3,3.7-3.6l-1.5-1.3c-1,1.2-2.2,2.3-3.4,3.4L141.6,63.6z"/>
	<polygon points="94.4,40.5 96.3,40.9 96.7,39.2 98.4,39.2 98.4,37.2 95.1,37.2 	"/>
	<polygon points="105,36 103,35.6 102.7,37.2 101,37.2 101,39.2 104.3,39.2 	"/>
	<polygon points="102,34.2 103.3,34.2 103,35.5 105,35.9 105.7,32.2 102,32.2 	"/>
	<polygon points="99.4,32.2 98.1,32.2 98.4,31 96.4,30.6 95.6,34.2 99.4,34.2 	"/>
	<rect x="98.7" y="17.7" transform="matrix(0.9782 0.2076 -0.2076 0.9782 6.2774 -20.27)" width="2" height="4.2"/>
	<rect x="97.4" y="24.2" transform="matrix(0.9782 0.2076 -0.2076 0.9782 7.5997 -19.8414)" width="2" height="4.2"/>
	<polygon points="99.9,14 99.7,15.1 101.7,15.5 102.5,11.7 98.6,12.2 98.9,14.2 	"/>
	<rect x="90.8" y="11" transform="matrix(0.1416 0.9899 -0.9899 0.1416 92.8582 -78.6899)" width="2" height="6.4"/>
	<polygon points="83.2,16.4 85,16.2 84.7,14.2 81.6,14.7 80.9,17.8 82.9,18.2 	"/>
	<rect x="77.5" y="23.4" transform="matrix(0.2107 -0.9776 0.9776 0.2107 39.7042 97.9389)" width="5.9" height="2"/>
	<polygon points="77.8,32.2 73.6,32.2 72.9,35.5 74.9,35.9 75.2,34.2 79.4,34.2 80.1,31 78.1,30.6 	"/>
	<polygon points="76.1,40.5 78,40.9 78.8,37.2 74.6,37.2 74.9,36 72.9,35.6 72.2,39.2 76.3,39.2 	"/>
	<rect x="74.9" y="43.4" transform="matrix(0.9777 0.21 -0.21 0.9777 11.3189 -14.9255)" width="2" height="4.8"/>
	<path d="M89.2,95l0.6,1.9c1.6-0.5,3.1-1.1,4.6-2l-1-1.8C92.1,93.9,90.7,94.5,89.2,95z"/>
	<path d="M95.8,91.7l1.2,1.6c1.3-0.9,2.6-2,3.8-3.3l-1.4-1.4C98.2,89.8,97,90.8,95.8,91.7z"/>
	<path d="M81.9,95.9l-0.1,2c0.2,0,0.4,0,0.7,0c1.5,0,2.9-0.1,4.3-0.4l-0.3-2C85,95.9,83.4,96,81.9,95.9z"/>
	<path d="M69.1,89.1c0.6,1.7,1.5,3.2,2.6,4.5l1.5-1.3c-0.9-1.1-1.7-2.3-2.2-3.8L69.1,89.1z"/>
	<path d="M74.1,95.6c1.4,0.9,3,1.6,4.8,2l0.4-2c-1.5-0.3-2.9-0.9-4.1-1.7L74.1,95.6z"/>
	<rect x="71.7" y="58.5" transform="matrix(0.9777 0.21 -0.21 0.9777 14.4065 -13.9103)" width="2" height="4.8"/>
	<rect x="70.1" y="66" transform="matrix(0.9777 0.21 -0.21 0.9777 15.9501 -13.4027)" width="2" height="4.8"/>
	<path d="M70.9,73.9L70.9,73.9l-1-0.3l-1-0.1c-0.4,1.8-0.6,3.4-0.8,4.8l2,0.2C70.3,77.1,70.6,75.6,70.9,73.9z"/>
	<path d="M69.9,81.8c0-0.2,0-0.4,0-0.6l-2-0.1c0,0.2,0,0.4,0,0.6c0,1.6,0.1,3,0.4,4.4l2-0.4C70.1,84.6,69.9,83.2,69.9,81.8z"/>
	<rect x="73.3" y="51" transform="matrix(-0.9777 -0.21 0.21 -0.9777 135.7847 121.1386)" width="2" height="4.8"/>
	<path d="M104.4,84.9l-0.6-1.9l-1.2,1.7c-0.5,0.7-1,1.3-1.5,1.9l1.6,1.3c0.1-0.2,0.3-0.4,0.4-0.5c0.1,0.2,0.2,0.4,0.3,0.7l1.8-0.9
		C104.9,86.4,104.6,85.6,104.4,84.9z"/>
	<path d="M111.8,96.1c1.6,0.7,3.3,1.2,5.2,1.5l0.3-2c-1.7-0.3-3.3-0.7-4.7-1.3L111.8,96.1z"/>
	<path d="M106.7,89.6l-1.6,1.2c1.1,1.5,2.4,2.7,3.9,3.8l1.1-1.7C108.8,92,107.6,90.8,106.7,89.6z"/>
	<path d="M120.3,95.9l-0.1,2c0.6,0,1.2,0,1.9,0c1.1,0,2.3-0.1,3.4-0.2l-0.2-2C123.6,95.9,121.9,95.9,120.3,95.9z"/>
	<path d="M124.5,63c-0.3,0.1-0.7,0.1-1,0.2c0.1-0.4,0.2-0.7,0.2-1.1l-1.9-0.5c-0.2,0.8-0.4,1.7-0.5,2.5l-0.3,1.3l1.3-0.1
		c0.9-0.1,1.8-0.2,2.6-0.4L124.5,63z"/>
	<path d="M131.1,60c-1.3,0.9-2.6,1.7-3.9,2.2l0.8,1.9c1.5-0.6,3-1.4,4.4-2.5L131.1,60z"/>
	<path d="M141,48.6l-1.9-0.5c-0.4,1.5-0.9,2.9-1.6,4.3l1.8,0.9C140.1,51.7,140.6,50.2,141,48.6z"/>
	<path d="M128.5,44.5l1.7,1c0.9-1.5,1.8-2.7,2.7-3.7l-1.5-1.4C130.4,41.6,129.4,42.9,128.5,44.5z"/>
	<path d="M139.7,43.4c0,0.7,0,1.3-0.1,2l2,0.2c0.1-0.7,0.1-1.5,0.1-2.2c0-1.2-0.1-2.1-0.3-2.9l-1.9,0.5
		C139.6,41.6,139.7,42.4,139.7,43.4z"/>
	<path d="M124,54.2c-0.5,1.5-1,3.1-1.4,4.6l1.9,0.5c0.4-1.5,0.9-3.1,1.4-4.5L124,54.2z"/>
	<path d="M128.8,48l-1.8-0.9c-0.7,1.4-1.4,2.9-2,4.4l1.9,0.7C127.5,50.7,128.2,49.3,128.8,48z"/>
	<path d="M137.5,39.2c0.4,0,0.7,0.1,0.9,0.2l0.8-1.8c-0.5-0.2-1.1-0.4-1.7-0.4c-1.2,0-2.5,0.4-3.8,1.2l1.1,1.7
		C135.8,39.5,136.7,39.2,137.5,39.2z"/>
	<path d="M137.8,55.8l-1.7-1.1c-0.9,1.3-1.8,2.5-2.9,3.5l1.4,1.4C135.8,58.5,136.8,57.2,137.8,55.8z"/>
	<path d="M429.7,31.6c-5.4,0-9.8,3.2-13.8,6.5l1.3-5.9h-20.3l-3.7,16.9c-3.3,1.3-6.6,2-9.3,2c-0.1,0-0.2,0-0.4,0
		c-0.2-17-9.5-20.6-17.3-20.6c-27,0-35.8,31-35.8,46.1c0,0.2,0,0.4,0,0.6l0,0.1c-2.3,3.9-5.5,6.3-8.7,6.3c-3.2,0-4.2-0.9-4.2-3.7
		c0-1.2,0.2-2.4,0.5-3.9l14.9-70l-20.9,2.8l-13.7,64.2c-1.8,6.2-6.2,10.5-10.5,10.5c-3.2,0-4.2-0.9-4.2-3.7c0-1.1,0.1-2,0.5-3.6
		l9.4-44.1h-20.3l-9.5,40.7c-6.3,7.6-12.1,12.3-21.2,12.3c-5.4,0-8-1.4-8-9.7c0-14,8.4-36.3,15.3-36.3c2.2,0,2.6,2.3,2.6,4.2
		c0,2.1-0.5,4.6-1.4,7.2l-0.3,0.7l0.7,0.4c1.7,1.1,3.4,1.7,5,1.7c3.6,0,7.7-2.7,7.7-10.3c0-5.8-2.6-12.7-15.1-12.7
		c-26.6,0-35.2,31.1-35.2,46.2c0,0.1,0,0.1,0,0.2c-2,4.1-4.1,6.7-8,6.7c-2.9,0-4.1-1.3-4.1-4.3c0-3.1,1.3-8.1,2.6-13.3
		c1.6-6.4,3.5-13.7,3.5-19.5c0-9.8-5.5-15.4-15.1-15.4c-3.4,0-8.3,1-13.1,5.3l0.9-4.1h-20.3l-8.8,41c-3.4,3.9-6.6,7-10.1,9l-0.1,0.2
		c0-0.1,0-0.1,0-0.2c-1.1,0.7-2.3,1.2-3.5,1.7l0.7,1.9c0.8-0.3,1.7-0.7,2.5-1.1c0,0,0,0,0-0.1c4.8-2.5,8.6-6.4,12.1-10.3l0.2-0.2
		l8.5-39.9h16.2l-2,8.9l2.6-2.9c5.1-5.8,10.5-7.1,14.1-7.1c6,0,13.1,2.3,13.1,13.4c0,5.5-1.8,12.7-3.4,19
		c-1.4,5.4-2.7,10.4-2.7,13.8c0,5.2,3.3,6.3,6.1,6.3c5.3,0,7.9-3.9,9.9-8.1l0.1-0.2l0-0.6c0-14.4,8.1-44.2,33.2-44.2
		c8.7,0,13.1,3.6,13.1,10.7c0,5.1-2.2,8.3-5.7,8.3c-1,0-2.1-0.3-3.2-1c0.9-2.6,1.3-4.9,1.3-7.1c0-3.9-1.7-6.2-4.6-6.2
		c-8.9,0-17.3,23.9-17.3,38.3c0,8.5,2.7,11.7,10,11.7c10,0,16.1-5,22.9-13.2l0.2-0.2l9.2-39.6h16.3l-8.9,41.7
		c-0.4,1.7-0.5,2.8-0.5,4c0,4.8,2.9,5.6,5.7,5.7c-2.2,3.2-5.8,6.9-11.8,10.1c-6.5-1-10.2-6-10.2-14.1c0-0.1,0-0.2,0-0.3l0.1-3.3
		l-1.9,2.3c-8.4,10.5-17.8,15.5-28.8,15.5c-9.2,0-15.1-3.5-17.5-10.5l-0.7-2l-1.1,1.8c-6.1,9.6-12.7,10.7-17.1,10.7
		c-12.6,0-14-9.3-14-13.3c0-4.3,1.5-10.4,2.9-16.4c1.5-6.1,2.8-11.8,2.8-16c0-6.5-3.5-7.5-5.6-7.5c-4.5,0-8.5,4.5-10.9,12.5l-8.5,40
		H149l3.6-16.9l-2.6,3.1c-3.2,3.8-6.6,6.9-10.1,9.2c-0.5,0.3-1,0.6-1.5,0.9c-0.2,0.1-0.5,0.3-0.7,0.4c-0.5,0.3-1,0.5-1.5,0.7
		c-1.1,0.5-2.3,1-3.4,1.4c-1.5,0.5-3,0.9-4.6,1.2l0.4,2c0.4-0.1,0.8-0.2,1.3-0.3l0,0c0,0,0.1,0,0.1,0c0.8-0.2,1.6-0.4,2.5-0.7
		c0,0,0,0,0,0c0.4-0.1,0.8-0.2,1.2-0.4l0-0.1c1-0.4,2-0.8,2.9-1.2l0,0c1.6-0.7,3.1-1.6,4.6-2.6l0,0c2.7-1.8,5.4-4,7.9-6.6l-2.5,11.7
		h20.3l8.8-41.5c2.1-6.9,5.4-11,8.9-11c0.9,0,3.6,0,3.6,5.5c0,3.9-1.4,9.8-2.8,15.5c-1.5,6.1-2.9,12.4-2.9,16.9
		c0,9.6,6,15.3,16,15.3c7.2,0,13-3.3,17.8-10.1c3.1,6.6,9.5,10.1,18.7,10.1c10.8,0,20.4-4.8,28.7-14.2c0.7,8.9,6,14.2,14.5,14.2
		c5.6,0,13.4-1.8,20.1-10.1c1.8,6.4,6.7,10.1,13.8,10.1c5.7,0,13.8-1.9,20.6-10.7c3.1,6.8,9.7,10.4,19.3,10.4
		c16.5,0,29-15.4,31.3-38.4c3-0.5,5.8-1.2,8.4-2.2L383,97.2h20.3l10.3-48.8c3-2.7,5-4.4,8.4-4.4c0.7,0,0.9,0.4,1.3,2.4
		c0.5,2.4,1.2,6,6.1,6c6.7,0,10.1-5.2,10.1-10.3C439.5,36.9,436.2,31.6,429.7,31.6z M367.3,53.4c0,3.1,1.1,5.2,3.3,6
		c-2,13.7-8.1,24.7-13.6,24.7c-3.8,0-5.5-0.9-5.5-9.3c0-12.7,7.9-34.7,15.9-34.7c2.2,0,3.5,0.9,3.8,5.8
		C368.7,47.4,367.3,50.1,367.3,53.4z"/>
	<path d="M286.8,26.8c6.1,0,11.1-5,11.1-11.1c0-6.1-5-11.1-11.1-11.1c-6.1,0-11.1,5-11.1,11.1C275.7,21.8,280.7,26.8,286.8,26.8z
		 M286.8,6.6c5,0,9.1,4.1,9.1,9.1c0,5-4.1,9.1-9.1,9.1c-5,0-9.1-4.1-9.1-9.1C277.7,10.6,281.8,6.6,286.8,6.6z"/>
</g>
</svg>