<?xml version="1.0" encoding="utf-8"?>
<!-- Generator: Adobe Illustrator 18.0.0, SVG Export Plug-In . SVG Version: 6.00 Build 0)  -->
<!DOCTYPE svg PUBLIC "-//W3C//DTD SVG 1.1//EN" "http://www.w3.org/Graphics/SVG/1.1/DTD/svg11.dtd">
<svg version="1.1" id="Layer_1" xmlns="http://www.w3.org/2000/svg" xmlns:xlink="http://www.w3.org/1999/xlink" x="0px" y="0px"
	 viewBox="0 127.3 841.9 340.7" enable-background="new 0 127.3 841.9 340.7" xml:space="preserve">
<defs>
	<filter id="Adobe_OpacityMaskFilter" filterUnits="userSpaceOnUse" x="669" y="148.4" width="155.6" height="103.1">
		<feColorMatrix  type="matrix" values="1 0 0 0 0  0 1 0 0 0  0 0 1 0 0  0 0 0 1 0"/>
	</filter>
</defs>
<mask maskUnits="userSpaceOnUse" x="669" y="148.4" width="155.6" height="103.1" id="b">
</mask>
<g mask="url(#b)">
	
		<linearGradient id="SVGID_1_" gradientUnits="userSpaceOnUse" x1="-145.2074" y1="986.2579" x2="-149.8618" y2="978.1971" gradientTransform="matrix(6.9372 0 0 -6.9372 1784.2129 6991.3364)">
		<stop  offset="0" style="stop-color:#FFFFFF"/>
		<stop  offset="9.300000e-02" style="stop-color:#FEF5F5"/>
		<stop  offset="0.252" style="stop-color:#FCDADB"/>
		<stop  offset="0.457" style="stop-color:#F9AEB1"/>
		<stop  offset="0.7" style="stop-color:#F47176"/>
		<stop  offset="0.973" style="stop-color:#EE242C"/>
		<stop  offset="1" style="stop-color:#ED1C24"/>
	</linearGradient>
	<path fill="url(#SVGID_1_)" d="M669,151.5c0,0,151.4-20.8,155.6,45.8v54.2L669,151.5z"/>
</g>
<g>
	<path fill="#EC2027" d="M651.5,264.9c-7.6,0-12.3,8-14,24c-0.4,3.2-0.5,14.7-0.5,34.5c0,15.2,0.3,24.7,0.9,28.5
		c1.8,11.6,6.3,17.4,13.6,17.4c6.8,0,10.9-7.1,12.4-21.4c0.4-3,0.5-13.2,0.5-30.7c0-18.1-0.1-28.4-0.4-30.9
		C662.5,272.1,658.3,264.9,651.5,264.9z"/>
	<path fill="#EC2027" d="M751.8,262.3c-4.9,0-8.4,2.1-10.5,6.2c-2.5,5.1-3.5,12.5-3.1,22l0.1,2.2c0.1,1.5,0.1,3,0.1,4.4h27v-6.6
		c0-9-0.6-15.4-1.9-19.2C761.6,265.3,757.7,262.3,751.8,262.3z"/>
	<path fill="#EC2027" d="M841.8,378.1V217.2c0-46-37.3-83.2-83.2-83.2H429.1c-46,0-83.2,37.3-83.2,83.2v160.8
		c0,46,37.3,83.2,83.2,83.2h329.4C804.5,461.3,841.8,424,841.8,378.1L841.8,378.1z M492.7,221.3h-34.3v173.8h-29.8V221.3h-34.4
		v-34.4h98.5V221.3z M585.9,395h-27.3v-15.5c-5.8,13.1-14.2,19.7-25.3,19.7c-17.9,0-26.8-12.6-26.8-37.7V238.7h26.9v102.1
		c0,8.4,0.5,14.4,1.4,18c1.7,6.2,5.2,9.3,10.3,9.3c5.6,0,9.3-3.4,11.2-10.1c1-3.9,1.5-10.4,1.5-19.5v-99.8h28L585.9,395L585.9,395z
		 M688.8,369.7c-4.6,19.6-13.9,29.4-28.1,29.4c-11.8,0-19.9-6.8-24.4-20.5V395h-26.5l0,0l0,0l0,0V186.9h27.8v65.1
		c4.6-11.6,12.5-17.4,23.6-17.4c14.1,0,23.4,10.1,27.8,30.2c2.2,10.2,3.3,27.8,3.3,52.8C692.5,341.9,691.3,359.3,688.8,369.7z
		 M793.4,321.9h-54.7c-0.2,1.7-0.3,5.1-0.3,10c0,11.6,0.5,19.9,1.4,24.9c2,10.2,6.2,15.3,12.5,15.3c9.4,0,14-10.2,14-30.6l0,0h26.2
		c0,0.7,0,1.8,0.1,3c0.1,1.3,0.1,2.3,0.1,3c0,18-3.3,31.1-10,39.4c-6.7,8.2-17,12.4-31,12.4c-14.5,0-24.9-5-31.3-15
		c-5.1-7.9-8.3-19.5-9.7-34.7c-0.6-6.7-0.9-19.2-0.9-37.7c0-14.9,0.3-25.4,0.9-31.7c1.2-12.8,4-22.5,8.2-29.2
		c6.9-10.9,18.1-16.3,33.5-16.3c14.8,0,25.7,5.9,32.5,17.7c5.6,9.5,8.3,28.8,8.3,57.8L793.4,321.9L793.4,321.9z"/>
</g>
<g>
	<path d="M42.4,396.2v-88.7L0.1,186.9h33.2l24.4,78.8l24-78.8h32.3L72.6,307.4v88.8H42.4L42.4,396.2z M124.4,317.7
		c0-27.1,2.1-46.3,6.2-57.6c6.1-16.8,18.3-25.3,36.4-25.3c18.1,0,30.3,8.4,36.5,25.3c4.1,11.2,6.2,30.4,6.2,57.6
		c0,27.1-2.1,46.4-6.2,57.6c-6.2,16.7-18.4,25.1-36.5,25.1s-30.2-8.4-36.4-25.3C126.5,363.9,124.4,344.8,124.4,317.7L124.4,317.7z
		 M153.2,319.7c0,19.5,0.1,30,0.3,31.8c1.4,14,5.9,21,13.3,21c7.4,0,12-6,13.6-18.1c0.3-2.6,0.5-12.5,0.5-29.5v-15.3
		c0-15.9-0.2-25.5-0.6-28.8c-1.8-12-6.2-17.9-13.3-17.9c-6.9,0-11.2,5.3-13,15.8c-0.5,3.3-0.8,12.2-0.8,26.5L153.2,319.7
		L153.2,319.7z M310,239v157.2h-27.4v-15.6c-5.8,13.2-14.3,19.8-25.4,19.8c-18,0-27-12.6-27-37.9V239h27v102.7
		c0,8.4,0.5,14.4,1.4,18.1c1.8,6.3,5.2,9.4,10.4,9.4c5.6,0,9.4-3.4,11.2-10.2c1-3.9,1.5-10.4,1.5-19.6V239H310L310,239z"/>
</g>
</svg>
